<svg width="24" height="24" viewBox="0 0 24 24" fill="none" xmlns="http://www.w3.org/2000/svg">
<g clip-path="url(#clip0_1_8660)">
<path d="M23.3109 8.00156H0.689064C0.937502 7.30312 1.24688 6.63281 1.6125 6C3.68906 2.41875 7.57031 0 12 0C16.4297 0 20.3109 2.41406 22.3875 6C22.7578 6.63281 23.0672 7.29844 23.3109 8.00156Z" fill="#CD1225"/>
<path d="M23.3109 15.9984C23.0625 16.6969 22.7531 17.3625 22.3875 17.9953C20.3109 21.5813 16.4297 24 12 24C7.56562 24 3.68906 21.5859 1.60781 18C1.24218 17.3672 0.932809 16.6969 0.684372 16.0031H23.3109V15.9984Z" fill="black"/>
<path d="M24 12C24 13.4016 23.7562 14.7516 23.3109 15.9984H0.689062C0.24375 14.7516 0 13.4016 0 12C0 10.5984 0.24375 9.24843 0.689062 8.00156H23.3156C23.7563 9.24843 24 10.5984 24 12Z" fill="white"/>
<path d="M10.6031 15.075C10.5938 15.0703 10.5797 15.0656 10.5703 15.0703L10.5234 15.0844C10.5094 15.0891 10.5 15.1078 10.5047 15.1219C10.5047 15.1219 10.5234 15.1453 10.5375 15.1453L10.5141 15.2297L10.3828 15.1969L10.4297 15.0563C10.4344 15.0469 10.4297 15.0328 10.4297 15.0328L10.3875 15.0188L10.3406 15.0328C10.3406 15.0328 10.3125 15.0563 10.3172 15.075C10.3219 15.0891 10.3313 15.0984 10.3313 15.0984L10.3172 15.1875L10.2281 15.1641L10.3219 14.85C10.3219 14.85 10.3219 14.8219 10.3078 14.8172L10.2703 14.8219C10.2609 14.8313 10.2047 14.8359 10.1578 14.8313C10.1438 14.8313 10.125 14.8406 10.125 14.8406C10.1203 14.8734 10.1344 14.8922 10.1344 14.8922C10.1672 14.8969 10.2047 14.8969 10.2422 14.8922L10.1953 15.0422C10.0922 15.0469 10.05 15.1359 10.05 15.1359C10.0453 15.15 10.0453 15.1594 10.0453 15.1641L10.0641 15.1828L10.1719 15.2156H10.1766V15.2203L10.3125 15.2531C10.3172 15.2578 10.3172 15.2578 10.3172 15.2578L10.3313 15.2625H10.3359L10.5141 15.3094H10.5234C10.5375 15.3094 10.5516 15.3 10.5563 15.2859L10.6031 15.1172V15.075ZM10.1719 15.1359L10.1344 15.1219C10.1438 15.1125 10.1625 15.0984 10.1625 15.0984L10.1719 15.1359Z" fill="#BF920D"/>
<path d="M11.2547 14.9953C11.2453 14.9813 11.2266 14.9813 11.2125 14.9953L11.1891 15.0188C11.1844 15.0234 11.1797 15.0328 11.1797 15.0328V15.1828C11.1797 15.3047 11.1375 15.4078 11.1281 15.4219C11.1281 15.4219 11.1141 15.4313 11.1047 15.4313C11.1047 15.4313 11.1047 15.3984 11.1094 15.3797C11.1094 15.3797 11.1094 15.3703 11.1047 15.3656C11.1 15.3516 11.0766 15.3281 11.0391 15.3281H11.0297C11.025 15.3141 11.0203 15.3 11.0109 15.2813L11.0859 15.2578C11.0859 15.2578 11.1 15.2438 11.1047 15.2344C11.1094 15.225 11.1047 15.2109 11.1 15.2063L11.0531 15.1547L11.0016 15.0891C10.9969 15.0797 10.9875 15.0797 10.9875 15.0797C10.9688 15.075 10.9594 15.0797 10.9594 15.0797L10.9172 15.1219C10.9078 15.1313 10.8703 15.15 10.8375 15.1688C10.8281 15.1734 10.8234 15.1828 10.8234 15.1922L10.8328 15.2203L10.8984 15.2766C10.8844 15.2906 10.8703 15.3047 10.8516 15.3094C10.8234 15.3141 10.7719 15.3 10.7344 15.2953C10.7438 15.2344 10.7156 15.1828 10.7156 15.1828C10.7156 15.1828 10.6875 15.1594 10.6734 15.1688C10.6594 15.1781 10.65 15.1969 10.65 15.1969C10.65 15.1969 10.6828 15.2719 10.6641 15.3188C10.65 15.3516 10.6125 15.3703 10.5563 15.3844L10.5328 15.4219C10.5375 15.4359 10.5516 15.4453 10.5656 15.4453L10.5703 15.4406C10.6406 15.4266 10.6875 15.3984 10.7156 15.3516C10.7484 15.3609 10.8141 15.375 10.8563 15.3703C10.8984 15.3656 10.9313 15.3375 10.95 15.3094C10.9594 15.3234 10.9641 15.3328 10.9641 15.3328C10.9641 15.3938 11.0063 15.3938 11.0344 15.3938H11.0391C11.0344 15.4359 11.0344 15.4781 11.0672 15.4922C11.0766 15.4969 11.0906 15.5016 11.0906 15.5016C11.1234 15.5016 11.1516 15.4922 11.1703 15.4734C11.1984 15.4453 11.2406 15.3188 11.2406 15.1875V15.0609L11.2547 15.0469C11.2641 15.0234 11.2641 15.0047 11.2547 14.9953ZM10.9547 15.2297L10.9078 15.1922C10.9313 15.1781 10.9547 15.1641 10.9547 15.1641L10.9734 15.15L11.0016 15.1875V15.1922L11.0156 15.2109L10.9547 15.2297Z" fill="#BF920D"/>
<path d="M11.3438 15.3891L11.3672 15.0937C11.3766 15.0984 11.3906 15.0937 11.4 15.0844C11.4141 15.075 11.4141 15.0516 11.4 15.0375L11.3672 15.0047L11.3344 14.9953C11.3203 15 11.3109 15.0094 11.3109 15.0094L11.2828 15.3797C11.2781 15.3984 11.2922 15.4125 11.3109 15.4125C11.3297 15.4219 11.3438 15.4078 11.3438 15.3891Z" fill="#BF920D"/>
<path d="M12.2766 15.4219L12.2438 15.2859C12.2391 15.2766 12.2344 15.2719 12.2297 15.2672C12.2297 15.2672 12.2109 15.2625 12.2016 15.2625C12.2016 15.2625 12.0891 15.3047 12.075 15.3984H12.0281L12.0188 15.3141C12.0141 15.3 12.0047 15.2859 11.9906 15.2859L11.6719 15.2719V15.2344L11.6578 15.2109L11.6297 15.2062L11.5922 15.2203C11.5781 15.225 11.5688 15.2437 11.5734 15.2625C11.5734 15.2625 11.5969 15.2859 11.6063 15.2812V15.3844L11.5547 15.3797C11.5453 15.3281 11.5078 15.2812 11.5078 15.2812C11.4938 15.2672 11.475 15.2672 11.475 15.2672C11.4516 15.2906 11.4469 15.3094 11.4609 15.3234C11.4703 15.3375 11.5078 15.3891 11.4984 15.4266C11.4891 15.4594 11.4375 15.4875 11.3531 15.4969C11.3344 15.5016 11.325 15.5156 11.325 15.5297C11.325 15.5297 11.3391 15.5578 11.3531 15.5578H11.3578C11.4656 15.5437 11.5313 15.5062 11.55 15.4453L11.5547 15.4406L11.85 15.4641C11.8547 15.4875 11.8594 15.5203 11.8828 15.5391C11.8922 15.5484 11.9109 15.5625 11.9344 15.5625C11.9391 15.5625 11.9438 15.5578 11.9438 15.5578C12.0047 15.5484 12.0281 15.5016 12.0281 15.4594H12.2438L12.2672 15.45L12.2766 15.4219ZM11.9391 15.4969C11.9297 15.4969 11.925 15.4922 11.925 15.4922C11.925 15.4922 11.9109 15.45 11.9109 15.4359C11.9109 15.4359 11.9016 15.4031 11.8828 15.4031L11.6766 15.3891V15.3375L11.9625 15.3516L11.9719 15.4359C11.9672 15.4359 11.9766 15.4922 11.9391 15.4969ZM12.1406 15.4031C12.15 15.375 12.1734 15.3562 12.1922 15.3422L12.2063 15.4031H12.1406Z" fill="#BF920D"/>
<path d="M12.6797 15.211H12.6516C12.6375 15.2203 12.6188 15.225 12.6094 15.2297C12.6094 15.2297 12.5813 15.2438 12.5813 15.2578L12.6141 15.2906C12.6188 15.2906 12.6234 15.2906 12.6234 15.2906L12.6375 15.3703L12.5438 15.3844L12.5063 15.0469C12.5063 15.0375 12.4969 15.0235 12.4969 15.0235C12.4734 15.0141 12.4641 15.0188 12.45 15.0281L12.4219 15.0563C12.4078 15.0656 12.4078 15.0891 12.4172 15.0985C12.4266 15.1078 12.4359 15.1125 12.4359 15.1125L12.4641 15.2719C12.3938 15.3047 12.3563 15.3516 12.3563 15.4219V15.4266C12.3563 15.4266 12.3563 15.4406 12.3609 15.45C12.3609 15.45 12.3703 15.4641 12.3938 15.4641C12.4172 15.4641 12.45 15.4594 12.5156 15.4547L12.6656 15.4313L12.6938 15.3985V15.2391C12.6938 15.225 12.6891 15.2156 12.6797 15.211ZM12.4219 15.3985C12.4266 15.3797 12.4359 15.3563 12.4734 15.3375L12.4781 15.3891C12.4547 15.3985 12.4359 15.3985 12.4219 15.3985Z" fill="#BF920D"/>
<path d="M12.8063 15.2344C12.7922 15.225 12.7734 15.225 12.7641 15.2391C12.7641 15.2391 12.7547 15.2719 12.7688 15.2859C12.7688 15.2859 12.8531 15.3516 12.8297 15.4172C12.8016 15.4828 12.7359 15.4922 12.7359 15.4922C12.7125 15.4969 12.6984 15.5063 12.7031 15.525C12.7031 15.525 12.7172 15.5531 12.7359 15.5531C12.7359 15.5531 12.8484 15.5438 12.8859 15.4359C12.9234 15.3328 12.8109 15.2391 12.8063 15.2344Z" fill="#BF920D"/>
<path d="M13.9406 15.1359L13.8141 15.1594C13.8 15.1078 13.7672 14.9906 13.7297 14.9203C13.7016 14.8594 13.6641 14.8453 13.6313 14.8406C13.5891 14.8312 13.5469 14.8547 13.5469 14.8547C13.5188 14.8828 13.5188 14.9016 13.5328 14.9156H13.575C13.575 14.9156 13.6031 14.9016 13.6219 14.9062C13.6453 14.9109 13.6594 14.9297 13.6688 14.9484C13.7016 15.0234 13.7344 15.1266 13.7484 15.1781L13.6875 15.2062C13.6875 15.2016 13.6828 15.2016 13.6828 15.2016C13.5656 15.15 13.5516 15.1594 13.5422 15.1734C13.5328 15.1828 13.5047 15.2203 13.4906 15.2437L13.4578 15.2531C13.4484 15.2062 13.4156 15.1359 13.3594 15.1359C13.3594 15.1359 13.3172 15.1359 13.2938 15.1406C13.2891 15.1125 13.2844 15.0891 13.275 15.0609C13.275 15.0609 13.2563 15.0328 13.2375 15.0375C13.2234 15.0422 13.2094 15.0562 13.2141 15.075C13.2188 15.0984 13.2234 15.1266 13.2281 15.1547C13.2188 15.1594 13.2094 15.1641 13.2094 15.1641C13.1813 15.1828 13.1531 15.2109 13.1484 15.3L13.1016 15.3094C13.0922 15.2297 13.0828 15.2156 13.0828 15.2156C13.0547 15.2062 13.0406 15.2062 13.0406 15.2062L12.9234 15.2906C12.9141 15.3 12.9094 15.3094 12.9094 15.3094L12.9234 15.3703C12.9281 15.3844 12.9469 15.3984 12.9609 15.3937L13.0406 15.3797C13.0313 15.4406 12.9703 15.4547 12.9703 15.4547C12.9469 15.4594 12.9375 15.4687 12.9375 15.4687C12.9375 15.5016 12.9516 15.5156 12.9703 15.5156C12.9797 15.5156 13.0313 15.5016 13.0641 15.4641C13.0922 15.4359 13.1063 15.4031 13.1063 15.3656L13.275 15.3375C13.2891 15.375 13.2984 15.4031 13.3078 15.4125C13.3078 15.4125 13.3406 15.4359 13.3594 15.4359C13.3594 15.4359 13.3922 15.4312 13.4109 15.4266C13.4109 15.4266 13.4625 15.4031 13.4625 15.3656V15.3047L13.4906 15.2953L13.5 15.3C13.5281 15.3094 13.6031 15.3328 13.6359 15.3234C13.6688 15.3141 13.6781 15.2812 13.6828 15.2531L13.7813 15.2156L13.9313 15.1875C13.95 15.1828 13.9594 15.1641 13.9594 15.15C13.9734 15.1453 13.9594 15.1359 13.9406 15.1359ZM12.9938 15.3328L13.0453 15.2953L13.05 15.3234L12.9938 15.3328ZM13.2234 15.2953C13.2281 15.2391 13.2422 15.2297 13.2422 15.2297L13.2516 15.2203C13.2563 15.2437 13.2609 15.2672 13.2656 15.2859L13.2234 15.2953ZM13.3125 15.2016C13.3266 15.2016 13.3453 15.1969 13.3453 15.1969C13.3734 15.1969 13.3875 15.225 13.3969 15.2578L13.3266 15.2719C13.3219 15.2531 13.3172 15.2297 13.3125 15.2016ZM13.4203 15.3656C13.4203 15.3656 13.3969 15.3797 13.3781 15.3797L13.3688 15.375C13.3641 15.3703 13.3594 15.3516 13.35 15.3328L13.4203 15.3234V15.3656ZM13.6313 15.2719C13.6313 15.2719 13.5891 15.2672 13.5563 15.2578C13.5656 15.2484 13.575 15.2344 13.5797 15.225C13.5938 15.2297 13.6125 15.2391 13.6359 15.2484C13.6406 15.2578 13.6313 15.2719 13.6313 15.2719Z" fill="#BF920D"/>
<path d="M12.3844 15.1125C12.3844 15.0891 12.3656 15.0703 12.3656 15.0703C12.3234 15.0703 12.3047 15.0891 12.3047 15.1125C12.3047 15.1312 12.3234 15.15 12.3469 15.15C12.3469 15.15 12.3844 15.1312 12.3844 15.1125Z" fill="#BF920D"/>
<path d="M10.1344 14.9906C10.1344 14.9906 10.1719 14.9766 10.1719 14.9531C10.1719 14.9297 10.1531 14.9156 10.1531 14.9156C10.1109 14.9156 10.0922 14.9297 10.0922 14.9531C10.0922 14.9766 10.1156 14.9906 10.1344 14.9906Z" fill="#BF920D"/>
<path d="M10.1531 15.2297C10.1344 15.2297 10.1156 15.2484 10.1156 15.2672C10.1156 15.2906 10.1344 15.3047 10.1531 15.3047C10.1766 15.3047 10.1906 15.2906 10.1906 15.2672C10.1906 15.2531 10.1719 15.2297 10.1531 15.2297Z" fill="#BF920D"/>
<path d="M10.2609 15.2672C10.2375 15.2672 10.2234 15.2812 10.2234 15.2812C10.2234 15.3234 10.2375 15.3422 10.2609 15.3422C10.2844 15.3422 10.2984 15.3281 10.2984 15.3047C10.2984 15.3047 10.2797 15.2672 10.2609 15.2672Z" fill="#BF920D"/>
<path d="M10.425 15.3141C10.4016 15.3141 10.3875 15.3281 10.3875 15.3516C10.3875 15.375 10.4016 15.3891 10.425 15.3891C10.4484 15.3891 10.4625 15.375 10.4625 15.3516C10.4625 15.3281 10.4438 15.3141 10.425 15.3141Z" fill="#BF920D"/>
<path d="M12.3984 15.2109C12.3984 15.1922 12.3797 15.1734 12.3609 15.1734C12.3375 15.1734 12.3188 15.1922 12.3188 15.2109C12.3188 15.2344 12.3375 15.2531 12.3609 15.2531C12.3797 15.2531 12.3984 15.2344 12.3984 15.2109Z" fill="#BF920D"/>
<path d="M12.4781 15.4922C12.4547 15.4922 12.4359 15.5062 12.4359 15.5297C12.4359 15.5531 12.4547 15.5672 12.4781 15.5672C12.4781 15.5672 12.5156 15.5531 12.5156 15.5297C12.5156 15.5062 12.4969 15.4922 12.4781 15.4922Z" fill="#BF920D"/>
<path d="M12.5719 15.4828C12.5484 15.4828 12.5297 15.4969 12.5297 15.4969C12.5297 15.5391 12.5484 15.5578 12.5719 15.5578C12.5906 15.5578 12.6094 15.5438 12.6094 15.5203C12.6094 15.525 12.5906 15.4828 12.5719 15.4828Z" fill="#BF920D"/>
<path d="M13.8281 15.2812C13.8094 15.2812 13.7906 15.3 13.7906 15.3234C13.7906 15.3422 13.8094 15.3609 13.8281 15.3609C13.8516 15.3609 13.8703 15.3422 13.8703 15.3234C13.8703 15.3 13.8516 15.2812 13.8281 15.2812Z" fill="#BF920D"/>
<path d="M14.8031 14.6578V14.6438C14.7984 14.5828 14.7984 14.5266 14.7984 14.4703L14.7844 14.1375C14.7797 13.9875 14.7703 13.8422 14.7656 13.6922L14.6625 11.3953C14.6578 11.2172 14.6484 11.0391 14.6391 10.8609L14.5969 9.97031C14.5875 9.81563 14.4984 9.55313 14.2922 9.51094C13.9594 9.45 13.6688 9.60469 13.4156 9.74531C13.3594 9.77344 13.3031 9.80625 13.2563 9.82969C13.1438 9.88125 12.9281 9.91406 12.7031 9.92813C12.675 9.88125 12.6422 9.825 12.6188 9.75469C12.5906 9.68906 12.5672 9.61406 12.5531 9.525C12.5203 9.31875 12.525 9.14063 12.5297 9.00469C12.5297 8.95781 12.5344 8.91094 12.5344 8.86875C12.5344 8.69531 12.5063 8.55469 12.45 8.45625C12.45 8.45625 12.4453 8.44219 12.4406 8.4375C12.3844 8.34375 12.3047 8.2875 12.2016 8.26406C12.1125 8.25 12.0469 8.23125 12 8.22188C11.8828 8.19375 11.8594 8.18906 11.8219 8.20781C11.7984 8.21719 11.7891 8.23125 11.7891 8.23125C11.7141 8.22656 11.5594 8.18906 11.4563 8.2125C11.3813 8.22656 11.3156 8.25469 11.2828 8.33906L11.2781 8.35313L11.2734 8.36719C11.2594 8.40938 11.2594 8.46563 11.2641 8.53594V8.54063V8.54531V8.55L11.2688 8.55469L11.2734 8.55938V8.56406L11.2781 8.56875L11.2828 8.57344L11.2875 8.57813H11.2922H11.2969H11.3016H11.3063H11.3109L11.3156 8.57344L11.3203 8.56875L11.325 8.56406L11.3297 8.55938C11.3297 8.55469 11.3297 8.55469 11.3297 8.55469C11.3344 8.55 11.3438 8.55 11.3625 8.54063L11.3953 8.52656C11.4188 8.51719 11.4422 8.51719 11.4422 8.51719C11.5266 8.53594 11.5781 8.60156 11.6156 8.65781C11.6391 8.69063 11.6484 8.72344 11.6578 8.77031C11.6672 8.80313 11.6672 8.83594 11.6719 8.87344C11.6766 8.97188 11.6719 9.05156 11.6531 9.12188L11.6484 9.15C11.6063 9.31406 11.5172 9.66563 11.3203 9.9375C11.0906 9.92344 10.8656 9.89531 10.7531 9.83906C10.7016 9.81563 10.65 9.7875 10.5938 9.75469C10.3359 9.61406 10.0453 9.45938 9.71719 9.52031C9.50625 9.5625 9.41719 9.82031 9.40782 9.97969L9.37032 10.8703C9.36094 11.0484 9.35625 11.2266 9.34688 11.4047L9.24844 13.7016C9.24375 13.8516 9.23438 13.9969 9.22969 14.1469L9.21563 14.4797C9.21094 14.5406 9.21094 14.5969 9.21094 14.6531V14.6672C9.20625 14.6766 9.20625 14.6859 9.20625 14.6859C9.20625 14.6859 9.22969 14.7 9.23438 14.7L9.24844 14.6953L9.25313 14.6906L9.58125 14.3953C9.61875 14.3672 9.65625 14.3297 9.69375 14.2969L9.7125 14.2828L10.1391 13.8984L10.1438 13.8938L10.1578 13.8797L10.3734 13.6875C10.4203 13.6453 10.4672 13.6031 10.5141 13.5563L10.5328 13.5375C10.5844 13.4906 10.6359 13.4438 10.6875 13.4016L10.3969 14.4281C10.35 14.4141 10.2984 14.3953 10.2516 14.3766C10.2141 14.3625 10.1719 14.3672 10.1391 14.3906L10.1344 14.3953L10.1297 14.4C10.1016 14.4047 9.96563 14.4328 9.90469 14.5359C9.87657 14.5828 9.86719 14.6484 9.88594 14.7141C9.87657 14.7375 9.87188 14.7656 9.8625 14.7984C9.81094 14.8031 9.72188 14.8406 9.6375 14.9953H9.57188C9.57188 14.9953 9.53907 15.0094 9.53907 15.0281L9.56719 15.0656L9.61875 15.0797C9.62813 15.1406 9.65157 15.2859 9.75 15.3375C9.75 15.3375 9.75469 15.3656 9.75938 15.3844C9.76875 15.4547 9.78282 15.5484 9.90469 15.5953C10.0547 15.6563 11.0156 15.8203 11.8125 15.8156C11.9438 15.8156 12.075 15.8156 12.2016 15.8156H12.2578C13.0453 15.8156 13.9641 15.6563 14.1141 15.5953C14.2359 15.5484 14.25 15.4547 14.2594 15.3844C14.2641 15.3656 14.2641 15.3469 14.2641 15.3469C14.3625 15.2859 14.3906 15.1406 14.4 15.0797L14.4516 15.0656C14.4656 15.0609 14.4797 15.0422 14.4797 15.0281C14.475 15.0094 14.4609 14.9953 14.4422 14.9953H14.3766C14.2922 14.8406 14.2031 14.8031 14.1516 14.7984C14.1469 14.7656 14.1375 14.7375 14.1281 14.7141C14.1469 14.6484 14.1375 14.5828 14.1094 14.5359C14.0484 14.4328 13.9125 14.4047 13.8844 14.4V14.3953L13.8797 14.3906C13.8516 14.3672 13.8047 14.3625 13.7719 14.3766C13.7203 14.3953 13.6734 14.4141 13.6266 14.4281L13.3359 13.4016C13.3922 13.4531 13.4531 13.5047 13.5094 13.5563C13.5516 13.5938 13.5891 13.6313 13.6313 13.6688C13.6406 13.6734 13.6453 13.6781 13.6453 13.6781L13.8844 13.8938L13.8891 13.8984L14.0109 14.0109L14.3297 14.2969C14.3672 14.3297 14.4047 14.3672 14.4422 14.3953L14.7703 14.6906V14.6953C14.775 14.7 14.7797 14.7 14.7797 14.7L14.8078 14.6906C14.7984 14.6813 14.8078 14.6625 14.8031 14.6578ZM11.9531 8.36719C11.9813 8.36719 12.0094 8.39063 12.0094 8.41875C12.0094 8.44688 11.9813 8.47031 11.9531 8.47031C11.925 8.47031 11.9016 8.44688 11.9016 8.41875C11.8969 8.39531 11.925 8.36719 11.9531 8.36719ZM11.3344 9.98438C11.3484 9.97031 11.3625 9.95156 11.3719 9.93281C11.3813 9.91406 11.3953 9.9 11.4047 9.88125C11.4141 9.8625 11.4281 9.84844 11.4375 9.82969C11.4375 9.82969 11.4469 9.81094 11.4516 9.80156L11.4656 9.77344C11.475 9.75 11.4844 9.73125 11.4844 9.73125C11.4984 9.70313 11.4984 9.69844 11.5031 9.69375L11.5172 9.66094C11.5219 9.64688 11.5266 9.6375 11.5313 9.62813C11.5313 9.62344 11.5313 9.62344 11.5313 9.62344L11.5406 9.60469C11.5453 9.59063 11.55 9.57656 11.5547 9.5625C11.5547 9.5625 11.5641 9.54844 11.5641 9.53906C11.5641 9.53906 11.5734 9.51094 11.5781 9.50156C11.5875 9.47344 11.5969 9.44063 11.6063 9.41719C11.6109 9.40781 11.6109 9.40313 11.6109 9.40313L11.6203 9.37031L11.625 9.34688C11.6484 9.26719 11.6672 9.20156 11.6813 9.15469L11.6859 9.12656C11.7047 9.05156 11.7094 8.96719 11.7047 8.86406C11.7 8.82656 11.7 8.78906 11.6906 8.75156L11.6859 8.72344C11.7141 8.7 11.7656 8.71406 11.85 8.71406C11.6719 8.44688 11.5688 8.42344 11.475 8.4C11.3953 8.38594 11.3578 8.4375 11.3391 8.475C11.3344 8.47969 11.325 8.48438 11.325 8.48438C11.325 8.48438 11.3109 8.48906 11.3063 8.49375C11.3016 8.46563 11.3063 8.43281 11.3109 8.40938L11.3156 8.38594V8.37656L11.3297 8.34844C11.3484 8.32969 11.3766 8.32031 11.4 8.31563C11.4375 8.31094 11.4703 8.30625 11.5078 8.30625C11.5359 8.30625 11.5594 8.31094 11.5875 8.33438C11.6344 8.37656 11.6859 8.41406 11.7375 8.44688C11.7703 8.47031 11.8219 8.49844 11.8594 8.49844C11.8594 8.49844 11.8828 8.52188 11.8922 8.53125C11.9063 8.54531 11.9203 8.55469 11.9391 8.55469C11.9719 8.55938 12 8.54063 12.0094 8.5125C12.0188 8.49844 12.0469 8.48438 12.0609 8.47969C12.0891 8.47031 12.1219 8.45625 12.15 8.45156C12.1828 8.44219 12.2203 8.4375 12.2578 8.4375C12.2953 8.4375 12.3469 8.4375 12.375 8.47031C12.375 8.47031 12.3844 8.47969 12.3844 8.48438C12.3844 8.48438 12.3984 8.51719 12.4078 8.53594C12.4172 8.56406 12.4266 8.59219 12.4359 8.62031C12.4547 8.69531 12.4594 8.77031 12.4641 8.84531V8.87344C12.4641 8.91563 12.4594 8.95781 12.4594 9.00469C12.45 9.14531 12.4453 9.32344 12.4828 9.53906C12.5109 9.7125 12.5719 9.83906 12.6281 9.9375C12.6375 9.95625 12.6469 9.975 12.6563 9.98906C12.6703 10.0078 12.6844 10.0266 12.6938 10.0406C12.6141 10.0359 12.5578 10.0172 12.5203 9.99375C12.4875 9.97969 12.4688 9.96094 12.4688 9.96094C12.4594 9.95156 12.4594 9.94688 12.4594 9.94688C12.45 9.92344 12.4406 9.9 12.4313 9.88125C12.4031 9.81094 12.3703 9.73594 12.3469 9.66094C12.2953 9.48281 12.2719 9.15469 12.2719 9.15469C12.2719 9.13594 12.2578 9.12656 12.2578 9.12656C12.2297 9.12656 12.2156 9.14063 12.2203 9.15469C12.2203 9.15469 12.2344 9.49219 12.2953 9.675C12.3188 9.75 12.3469 9.825 12.3797 9.9L12.3938 9.94219C12.4031 9.96094 12.4078 9.97969 12.4078 9.97969C12.4313 10.0406 12.4453 10.0828 12.4547 10.1156C12.3797 10.1016 12.2766 10.05 12.2063 9.99844C12.1828 9.98438 12.1641 9.96563 12.1547 9.95156V9.94219C12.1078 9.75 12.1125 9.13125 12.1125 9.13125C12.1125 9.10781 12.1031 9.09844 12.1031 9.09844C12.075 9.09844 12.0609 9.10781 12.0609 9.12656C12.0609 9.15469 12.0609 9.73125 12.1031 9.94219C12.1031 9.94688 12.1078 9.95156 12.1078 9.95156C12.1078 9.95156 12.0938 9.97969 12.0797 9.99844C12.0656 10.0172 12.0469 10.0359 12.0141 10.0688C12.0047 10.0781 11.9953 10.0922 11.9953 10.0922C11.9766 10.1016 11.9672 10.0969 11.9672 10.0969C11.9344 10.0688 11.9016 10.0359 11.8734 10.0031C11.8594 9.98438 11.8453 9.96563 11.8313 9.95156C11.9625 9.75 11.9859 9.47344 12 9.11719C12 9.11719 11.9906 9.08906 11.9766 9.08906L11.9484 9.11719C11.9344 9.48281 11.9063 9.75938 11.7656 9.95156C11.7516 9.97031 11.7375 9.98906 11.7375 9.98906C11.6813 10.05 11.6297 10.0875 11.5688 10.1203C11.5734 10.0875 11.5828 10.0453 11.5922 10.0031C11.5922 10.0031 11.6016 9.97031 11.6016 9.95156L11.6063 9.9375C11.7047 9.80156 11.8031 9.56719 11.8641 9.15C11.8641 9.15 11.8594 9.12188 11.8406 9.11719C11.8406 9.11719 11.8125 9.12656 11.8125 9.14063C11.7422 9.60938 11.6344 9.83906 11.5266 9.95156C11.5031 9.975 11.4844 9.99375 11.4656 10.0031C11.4328 10.0266 11.4 10.0406 11.3672 10.05C11.3344 10.0594 11.3063 10.0641 11.2781 10.0641C11.3016 10.0359 11.3203 10.0078 11.3344 9.98438ZM10.9594 13.2938L11.0766 13.6031L11.0906 13.6125C11.0953 13.6172 11.1047 13.6125 11.1047 13.6125L11.3063 13.3406L11.4047 13.8328C11.3063 13.9734 11.2266 14.0953 11.1844 14.1516C11.1656 14.0953 11.1281 13.9828 11.0672 13.8188C11.0672 13.8188 11.0578 13.8094 11.0531 13.8047C11.0438 13.8047 11.0391 13.8094 11.0391 13.8094L10.8281 14.1234L10.6688 13.5844L10.9594 13.2938ZM13.05 14.55L12.8813 14.3203C12.8766 14.3156 12.8719 14.3109 12.8719 14.3109L12.8484 14.325L12.75 14.5734C12.6844 14.5781 12.6234 14.5781 12.5719 14.5734L12.5063 14.2781L12.5859 13.8844C12.8156 14.2125 12.8156 14.2125 12.8344 14.2078L12.8484 14.1891C12.8531 14.1703 12.9141 13.9922 12.9609 13.8609L13.1625 14.1609L13.05 14.55ZM13.1906 14.2078L13.3828 14.4938C13.2797 14.5172 13.1813 14.5359 13.0875 14.5453L13.1906 14.2078ZM13.0078 14.5594C12.9328 14.5688 12.8578 14.5734 12.7969 14.5734L12.8766 14.3719L13.0078 14.5594ZM12.1969 14.6297C12.1359 14.6297 12.0891 14.6484 12.0609 14.6859C12.0469 14.7047 12.0375 14.7281 12.0328 14.7563H11.9578C11.9531 14.7281 11.9484 14.7047 11.9344 14.6859C11.9063 14.6484 11.8594 14.6297 11.7984 14.6297C11.7844 14.6063 11.7516 14.5781 11.6859 14.5688C11.6625 14.5641 11.6203 14.5641 11.5594 14.5688C11.5313 14.5734 11.5031 14.5734 11.4656 14.5734L11.5125 14.3578L11.6063 14.5078C11.6109 14.5172 11.625 14.5219 11.625 14.5219L11.7844 14.3813L11.7891 14.3719L11.9063 13.4625L11.85 14.3766L11.8547 14.3906L11.9859 14.5453C11.9953 14.5547 12.0094 14.5547 12.0094 14.5547L12.1453 14.3953L12.15 14.3813L12.0938 13.4672L12.2109 14.3766L12.2156 14.3859L12.3656 14.5219C12.375 14.5313 12.3891 14.5266 12.3891 14.5266L12.4875 14.3672L12.5344 14.5828C12.5016 14.5781 12.4734 14.5781 12.4453 14.5781C12.3844 14.5734 12.3469 14.5734 12.3234 14.5781C12.2484 14.5781 12.2156 14.6063 12.1969 14.6297ZM12.2203 14.7563C12.225 14.7563 12.2297 14.7703 12.2344 14.7797C12.2344 14.7797 12.2531 14.8078 12.2672 14.8172L12.2625 14.8313C12.2531 14.8594 12.225 14.8781 12.1922 14.8969L12.1641 14.9203C12.1313 14.9391 12.1219 14.9531 12.1125 14.9719C12.0891 14.9109 12.0797 14.8688 12.0703 14.8313C12.0656 14.8031 12.0656 14.7797 12.0703 14.7563C12.075 14.7328 12.0797 14.7234 12.0891 14.7094C12.1125 14.6766 12.15 14.6672 12.1781 14.6672C12.1734 14.6906 12.1781 14.7094 12.1922 14.7188L12.2203 14.7563ZM11.925 14.8266C11.9203 14.8641 11.9063 14.9109 11.8828 14.9672C11.8734 14.9484 11.8641 14.9344 11.8313 14.9156C11.8219 14.9063 11.8078 14.9016 11.7984 14.8922C11.7703 14.8734 11.7375 14.8594 11.7328 14.8266L11.7281 14.8125L11.7609 14.775L11.775 14.7516C11.7797 14.7516 11.7797 14.7516 11.7797 14.7516L11.8031 14.7188C11.8172 14.7047 11.8219 14.6859 11.8219 14.6672C11.85 14.6672 11.8875 14.6766 11.9109 14.7094C11.9203 14.7188 11.925 14.7328 11.9297 14.7563C11.925 14.775 11.925 14.7984 11.925 14.8266ZM11.1516 14.325L11.1375 14.3109C11.1281 14.3109 11.1234 14.3156 11.1234 14.3156L10.95 14.55L10.8375 14.1656L11.0438 13.8656C11.0906 13.9969 11.1516 14.175 11.1563 14.1938L11.175 14.2125C11.1891 14.2172 11.1938 14.2172 11.4234 13.8891L11.5031 14.2828L11.4375 14.5781C11.3859 14.5828 11.3203 14.5828 11.2594 14.5781L11.1516 14.325ZM11.2078 14.5734C11.1422 14.5688 11.0672 14.5641 10.9922 14.5594L11.1281 14.3719L11.2078 14.5734ZM10.9125 14.55C10.8234 14.5406 10.7203 14.5219 10.6172 14.4984L10.8094 14.2125L10.9125 14.55ZM11.4469 13.8375L11.4516 13.8328C11.5266 13.725 11.6016 13.6172 11.6531 13.5469L11.5172 14.1844L11.4469 13.8375ZM11.6484 12.8063C11.6906 12.8484 11.7328 12.8906 11.7797 12.9328L11.6859 13.3734L11.5453 12.9328L11.6484 12.8063ZM11.3531 13.1063L11.325 12.8156C11.3859 12.7547 11.4469 12.7031 11.5078 12.6516C11.5453 12.6938 11.5828 12.7359 11.625 12.7781L11.3531 13.1063ZM12.4547 12.9328L12.3141 13.3734L12.2203 12.9328C12.2672 12.8906 12.3094 12.8484 12.3516 12.8063L12.4547 12.9328ZM12.3797 12.7781C12.4219 12.7359 12.4594 12.6938 12.4969 12.6469C12.5578 12.6984 12.6141 12.75 12.6797 12.8109L12.6516 13.1016L12.3797 12.7781ZM12.3469 13.5422C12.3938 13.6172 12.4688 13.7203 12.5484 13.8281L12.5531 13.8328L12.4828 14.175L12.3469 13.5422ZM12.5625 13.7859C12.4828 13.6688 12.4031 13.5469 12.3281 13.4484L12.4828 12.9703L12.6422 13.1719C12.6422 13.1719 12.6563 13.1813 12.6609 13.1766L12.675 13.1625L12.7078 12.8531C12.8391 12.9703 12.9797 13.0969 13.125 13.2281C13.1391 13.2422 13.1578 13.2609 13.1766 13.275C13.1766 13.275 13.2094 13.3031 13.2234 13.3172L13.2375 13.3313C13.2375 13.3313 13.2516 13.3453 13.2609 13.35L13.3031 13.5094L13.0359 13.2469C13.0313 13.2422 13.0266 13.2375 13.0266 13.2375C13.0266 13.2375 13.0078 13.2469 13.0031 13.2516L12.8859 13.5516L12.6844 13.2797L12.6656 13.2703L12.6469 13.2844L12.5625 13.7859ZM13.2188 13.2234C13.2047 13.2094 13.1859 13.1953 13.1719 13.1766C13.1719 13.1766 13.1578 13.1672 13.1484 13.1625L13.0828 11.5688C13.125 11.4328 13.1531 11.2922 13.1766 11.1469L13.2609 13.2656C13.2469 13.2563 13.2328 13.2375 13.2188 13.2234ZM13.0781 11.4422C12.9656 11.8781 12.7594 12.2766 12.4641 12.6234C12.3797 12.7219 12.2859 12.8156 12.1875 12.9047V12.9094C12.1828 12.9141 12.1734 12.9234 12.1734 12.9234L12.1453 12.9469L12.1031 12.9797C12.0703 13.0078 12.0328 13.0359 12 13.0641C11.9672 13.0359 11.9297 13.0078 11.8969 12.9797C11.8828 12.9703 11.8688 12.9563 11.8547 12.9469L11.8313 12.9281C11.8219 12.9234 11.8172 12.9141 11.8078 12.9094L11.8031 12.9047C11.7047 12.8156 11.6109 12.7172 11.5266 12.6234C11.2313 12.2766 11.025 11.8781 10.9125 11.4422C10.8656 11.2641 10.8375 11.0813 10.8234 10.8891L10.8328 10.6453C11.4938 10.6219 11.85 10.4063 11.9625 10.3266C11.9766 10.3172 11.9859 10.3125 11.9859 10.3125C11.9859 10.3125 12.0094 10.3219 12.0188 10.3266C12.1313 10.4063 12.4922 10.6219 13.1484 10.6453L13.1578 10.8891C13.1531 11.0813 13.125 11.2641 13.0781 11.4422ZM10.9172 11.5734L10.8516 13.1672C10.8516 13.1672 10.8375 13.1813 10.8328 13.1813C10.8188 13.1953 10.8 13.2094 10.8 13.2094C10.7672 13.2375 10.7531 13.2563 10.7391 13.2703L10.8234 11.1516C10.8422 11.2922 10.875 11.4328 10.9172 11.5734ZM10.7484 13.3266L10.7672 13.3125C10.7813 13.2984 10.8 13.2844 10.8141 13.2703C10.8281 13.2563 10.8469 13.2422 10.8609 13.2234C11.0063 13.0922 11.1469 12.9656 11.2828 12.8484L11.3156 13.1578L11.3297 13.1719L11.3531 13.1672L11.5125 12.9656L11.6672 13.4438C11.5922 13.5469 11.5125 13.6688 11.4328 13.7813L11.3344 13.2844L11.3203 13.2703C11.3109 13.2656 11.3063 13.2703 11.3063 13.2703L11.1 13.5516L10.9828 13.2516L10.9688 13.2422C10.9594 13.2375 10.9547 13.2422 10.9547 13.2422L10.6781 13.5094L10.725 13.35C10.7344 13.3406 10.7438 13.3313 10.7484 13.3266ZM10.6453 13.6453L10.7953 14.1563L10.5797 14.4844C10.5281 14.4703 10.4766 14.4563 10.425 14.4375L10.6453 13.6453ZM10.1391 14.4281L10.1438 14.4234C10.1484 14.4188 10.1484 14.4188 10.1484 14.4188C10.1719 14.4 10.2 14.3953 10.2234 14.4094C10.2703 14.4328 10.3219 14.4469 10.3734 14.4609C10.5703 14.5266 10.7484 14.5641 10.9172 14.5922C10.9922 14.6016 11.0672 14.6063 11.1375 14.6109C11.1656 14.6156 11.1938 14.6156 11.2219 14.6156C11.2219 14.6156 11.25 14.6156 11.2641 14.6156C11.3203 14.6156 11.3766 14.6156 11.4188 14.6156C11.4328 14.6156 11.4469 14.6156 11.4609 14.6156C11.4984 14.6109 11.5359 14.6109 11.5641 14.6109C11.6203 14.6063 11.6625 14.6063 11.6813 14.6063C11.7422 14.6156 11.7609 14.6391 11.7609 14.6391C11.775 14.6719 11.775 14.6906 11.7703 14.6906C11.7703 14.6906 11.7516 14.7141 11.7422 14.7328C11.7375 14.7375 11.7328 14.7422 11.7328 14.7422L11.7281 14.7516C11.7188 14.7609 11.7094 14.775 11.7094 14.775C11.6813 14.7938 11.6578 14.8031 11.6344 14.8031C11.5313 14.8125 11.4141 14.8125 11.2969 14.8078C11.2078 14.8031 11.1188 14.7984 11.0203 14.7844L11.025 14.7797C11.0344 14.7516 11.0344 14.7281 11.0344 14.7281C11.025 14.6578 10.9922 14.625 10.9641 14.6016L10.9547 14.5969C10.9453 14.5875 10.9313 14.5828 10.9125 14.5828H10.9031L10.875 14.5875H10.8703C10.8281 14.6016 10.7953 14.6344 10.7813 14.6766C10.7766 14.6813 10.7766 14.6859 10.7766 14.6859C10.7719 14.7141 10.7719 14.7281 10.7719 14.7469V14.7516C10.6922 14.7375 10.6172 14.7234 10.5469 14.7094C10.3266 14.6625 10.1719 14.6156 10.1484 14.6063C10.1484 14.6063 10.1438 14.6016 10.1438 14.5969L10.1391 14.5922C10.1391 14.5922 10.1297 14.5641 10.1297 14.5406C10.125 14.5172 10.125 14.4844 10.125 14.4563C10.1203 14.4656 10.125 14.4422 10.1391 14.4281ZM10.9875 14.7891C10.9828 14.8078 10.9734 14.8266 10.9641 14.8453V14.85C10.9594 14.8547 10.95 14.8641 10.9406 14.8734C10.9266 14.8875 10.9078 14.9063 10.8891 14.9344C10.8844 14.9203 10.875 14.9063 10.8656 14.8922C10.8422 14.8547 10.8141 14.8172 10.8141 14.7656C10.8141 14.7656 10.8141 14.7328 10.8188 14.7141L10.8234 14.6906C10.8328 14.6625 10.8563 14.6438 10.8844 14.6344C10.8891 14.6297 10.8938 14.6297 10.8938 14.6297L10.9313 14.6391C10.9641 14.6625 10.9828 14.6859 10.9875 14.7141C10.9922 14.7375 10.9922 14.7656 10.9875 14.7891ZM9.93282 14.5406C9.97032 14.4797 10.0406 14.4516 10.0875 14.4375C10.0828 14.4469 10.0828 14.4563 10.0828 14.4563C10.0828 14.4844 10.0875 14.5125 10.0875 14.5359C10.0922 14.5594 10.0922 14.5781 10.0969 14.5969L10.0688 14.6063C10.0453 14.6156 10.0219 14.625 10.0219 14.625C9.95625 14.6531 9.93282 14.6719 9.91407 14.6906C9.90938 14.6719 9.90469 14.6531 9.90469 14.6531C9.90469 14.6063 9.91407 14.5688 9.93282 14.5406ZM13.9125 14.4375C13.9594 14.4516 14.0297 14.4844 14.0672 14.5406C14.0813 14.5688 14.0906 14.6016 14.0906 14.6344C14.0906 14.6344 14.0859 14.6719 14.0813 14.6906C14.0578 14.6719 14.0344 14.6531 13.9875 14.6297C13.9734 14.6203 13.95 14.6109 13.9266 14.6016C13.9266 14.6016 13.9078 14.5969 13.8984 14.5922C13.9031 14.5734 13.9078 14.55 13.9078 14.5313C13.9125 14.5078 13.9125 14.4797 13.9125 14.4563C13.9172 14.4656 13.9172 14.4469 13.9125 14.4375ZM13.8844 14.6344C13.9828 14.6672 14.0203 14.6953 14.0438 14.7188C14.0578 14.7469 14.0672 14.7797 14.0719 14.8266L14.0859 14.85C14.0953 14.8547 14.1047 14.8594 14.1047 14.8594C14.1047 14.8594 14.2172 14.8453 14.3109 15.0328L14.3203 15.0422C14.3156 15.0984 14.2875 15.2344 14.2172 15.2625C14.2172 15.2625 14.2031 15.2719 14.1984 15.2813C14.1844 15.3047 14.1844 15.3328 14.1797 15.3656C14.1703 15.4266 14.1609 15.4875 14.0766 15.5203C13.9594 15.5672 13.0078 15.7406 12.1922 15.7313H11.8031C10.9875 15.7406 10.0406 15.5672 9.91875 15.5203C9.83438 15.4875 9.825 15.4266 9.81563 15.3656C9.81094 15.3375 9.80625 15.3047 9.79688 15.2813C9.79688 15.2813 9.7875 15.2672 9.77813 15.2625C9.70782 15.2344 9.67969 15.1031 9.675 15.0422L9.68438 15.0328C9.77813 14.8453 9.87657 14.8547 9.87657 14.8547C9.87657 14.8547 9.89532 14.8547 9.90469 14.85L9.91875 14.8266C9.92344 14.7797 9.93282 14.7469 9.94219 14.7188C9.97032 14.6953 10.0078 14.6672 10.1016 14.6344C10.1063 14.6391 10.1063 14.6438 10.1063 14.6438C10.1297 14.6672 10.4203 14.7469 10.7672 14.8031C10.7766 14.85 10.8 14.8828 10.8188 14.9156C10.8422 14.9438 10.8563 14.9672 10.8516 14.9953C10.8516 14.9953 10.8609 15.0141 10.8703 15.0188H10.875C10.8844 15.0188 10.8891 15.0094 10.8891 15.0094C10.8984 14.9578 10.9313 14.925 10.9547 14.9016C10.9688 14.8922 10.9781 14.8781 10.9781 14.8781L10.9875 14.8641L11.0016 14.8359C11.1422 14.85 11.2828 14.8594 11.4094 14.8594C11.4891 14.8594 11.5594 14.8547 11.6344 14.8547C11.6484 14.85 11.6672 14.8453 11.6672 14.8453C11.6953 14.8875 11.7375 14.9109 11.7703 14.9297C11.7797 14.9344 11.7891 14.9391 11.7984 14.9438C11.8266 14.9672 11.8313 14.9766 11.8406 14.9953L11.8547 15.0234L11.8688 15.0328H11.8734L11.8875 15.0188C11.9203 14.9438 11.9391 14.8781 11.9484 14.8219H12.0234C12.0328 14.8734 12.0516 14.9438 12.0844 15.0188C12.0891 15.0281 12.0938 15.0328 12.0938 15.0328H12.1031L12.1172 15.0234L12.1359 14.9953C12.1453 14.9766 12.15 14.9672 12.1781 14.9438C12.1781 14.9438 12.1969 14.9344 12.2063 14.9297C12.2391 14.9063 12.2813 14.8828 12.2953 14.8359C12.3094 14.8406 12.3281 14.8453 12.3422 14.85C12.4125 14.8547 12.4875 14.8547 12.5672 14.8547C12.6938 14.8547 12.8297 14.85 12.975 14.8313C12.9797 14.8406 12.9844 14.85 12.9844 14.85L12.9891 14.8594L13.0172 14.8922C13.0406 14.9156 13.0688 14.9484 13.0781 14.9906C13.0828 15 13.0875 15.0047 13.0875 15.0047H13.0969C13.1063 15 13.1156 14.9953 13.1156 14.9953C13.1109 14.9625 13.125 14.9344 13.1484 14.9063C13.1719 14.8781 13.1953 14.8406 13.2047 14.7938C13.5469 14.7375 13.8422 14.6531 13.8609 14.6344C13.8797 14.6438 13.8844 14.6391 13.8844 14.6344ZM13.0078 14.7141C13.0172 14.6859 13.0359 14.6625 13.0641 14.6391C13.0734 14.6344 13.0875 14.6297 13.0969 14.6297C13.0969 14.6297 13.1109 14.6297 13.1156 14.6344C13.1438 14.6438 13.1672 14.6625 13.1766 14.6906L13.1813 14.7141C13.1859 14.7328 13.1859 14.7469 13.1859 14.7469C13.1813 14.8125 13.1578 14.85 13.1344 14.8875C13.125 14.9016 13.1156 14.9156 13.1109 14.9297C13.0969 14.9016 13.0734 14.8828 13.0594 14.8688C13.0594 14.8688 13.0406 14.85 13.0359 14.8453V14.8406C13.0359 14.8406 13.0172 14.8031 13.0125 14.7844C13.0078 14.7656 13.0031 14.7375 13.0078 14.7141ZM13.6266 14.4609C13.6781 14.4469 13.725 14.4281 13.7766 14.4094C13.8 14.4 13.8281 14.4 13.8281 14.4C13.8516 14.4188 13.8516 14.4188 13.8563 14.4234L13.8609 14.4281L13.8797 14.4656C13.8797 14.4938 13.875 14.5266 13.8703 14.55C13.8656 14.5734 13.8656 14.5875 13.8656 14.5875L13.8609 14.6063C13.8563 14.6109 13.8563 14.6156 13.8563 14.6156C13.8328 14.6297 13.6781 14.6766 13.4578 14.7234C13.3875 14.7375 13.3125 14.7516 13.2328 14.7656V14.7609C13.2328 14.7469 13.2281 14.7281 13.2281 14.7094C13.2281 14.7094 13.2234 14.7 13.2234 14.6953C13.2094 14.6531 13.1766 14.6203 13.1344 14.6063H13.125C13.1156 14.6016 13.1063 14.6016 13.1063 14.6016H13.0828C13.0828 14.6016 13.0547 14.6109 13.0453 14.6156L13.0359 14.6203C13.0078 14.6438 12.975 14.6719 12.9703 14.7234C12.9703 14.7234 12.9656 14.7703 12.975 14.7984V14.8031C12.8813 14.8125 12.7875 14.8219 12.6984 14.8266C12.5813 14.8313 12.4641 14.8313 12.3609 14.8219C12.3422 14.8172 12.3188 14.8125 12.3047 14.7984C12.3047 14.7984 12.2813 14.7797 12.2719 14.7703L12.2672 14.7656C12.2672 14.7656 12.2625 14.7516 12.2578 14.7469C12.2578 14.7469 12.2391 14.7141 12.2297 14.7047C12.2297 14.7047 12.2203 14.6859 12.2297 14.6672C12.2391 14.6531 12.2578 14.625 12.3188 14.6156C12.3188 14.6156 12.3797 14.6156 12.4359 14.6203C12.4641 14.625 12.5016 14.625 12.5344 14.625H12.5766C12.6234 14.625 12.675 14.625 12.7313 14.625C12.7453 14.625 12.7594 14.625 12.7734 14.625C12.8016 14.625 12.8297 14.6203 12.8578 14.6203C12.9281 14.6156 12.9984 14.6109 13.0781 14.6016C13.2469 14.5688 13.4297 14.5313 13.6266 14.4609ZM13.575 14.4375C13.5234 14.4563 13.4719 14.4703 13.4203 14.4844L13.2 14.1563L13.35 13.6453L13.575 14.4375ZM13.3359 13.5797L13.1766 14.1188L12.9703 13.8094L12.9516 13.8C12.9422 13.8047 12.9375 13.8094 12.9375 13.8141C12.8766 13.9781 12.8391 14.0906 12.8203 14.1469C12.7781 14.0953 12.6938 13.9734 12.5953 13.8281L12.6938 13.3359L12.8906 13.5984C12.8906 13.5984 12.9047 13.6078 12.9094 13.6078C12.9188 13.6078 12.9234 13.6031 12.9234 13.6031L13.0453 13.2891L13.3359 13.5797ZM14.4516 14.3344C14.4234 14.3063 14.3906 14.2828 14.3578 14.25L14.3438 14.2359L14.1656 9.94688C14.1047 10.0125 14.0109 10.1063 13.8844 10.2094L14.0391 13.9688L13.9172 13.8563H13.9125L13.8938 13.8375L13.7438 10.3125C13.6781 10.3594 13.6078 10.4109 13.5234 10.4625L13.6547 13.6266C13.6125 13.5891 13.5703 13.5516 13.5328 13.5141L13.5141 13.5L13.3922 10.5375C13.3359 10.5656 13.275 10.5984 13.2141 10.6219C13.2141 10.6219 13.2047 10.6125 13.2 10.6125C12.4734 10.5938 12.1031 10.3359 12.0281 10.2797C12.0188 10.275 12.0188 10.2703 12.0188 10.2703C12.0188 10.2703 11.9953 10.2656 11.9906 10.2703C11.9906 10.2703 11.9859 10.275 11.9766 10.2797C11.9016 10.3359 11.5359 10.5938 10.8094 10.6125L10.7953 10.6219C10.7297 10.5938 10.6734 10.5656 10.6172 10.5375L10.4953 13.5L10.4766 13.5141C10.4344 13.5516 10.3922 13.5891 10.3547 13.6266L10.4859 10.4625C10.4063 10.4156 10.3313 10.3641 10.2703 10.3125L10.1203 13.8375L10.1016 13.8563H10.0969L9.975 13.9688L10.1297 10.2094C10.0031 10.1063 9.90938 10.0125 9.84844 9.94688L9.67032 14.2359L9.65157 14.25C9.62344 14.2781 9.59063 14.3063 9.55782 14.3344L9.74532 9.8625C9.66094 9.88594 9.52032 9.97031 9.45938 10.0031L9.46407 9.97031C9.46875 9.82031 9.55782 9.59531 9.72188 9.5625C9.76875 9.55313 9.81563 9.54844 9.8625 9.54844C10.1203 9.54844 10.3547 9.675 10.5656 9.79219C10.6219 9.82031 10.6781 9.84844 10.7297 9.87656C10.8422 9.93281 11.0625 9.96563 11.2828 9.97969C11.2594 10.0125 11.2313 10.0453 11.1984 10.0734C11.1891 10.0828 11.1891 10.0969 11.1938 10.1063C11.1984 10.1156 11.2078 10.1203 11.2078 10.1203C11.2219 10.1203 11.2219 10.1203 11.2219 10.1203C11.2219 10.1203 11.2547 10.1109 11.2781 10.1109C11.3531 10.1063 11.4516 10.0969 11.5547 10.0031C11.5453 10.0641 11.5313 10.1344 11.5313 10.1578C11.5313 10.1672 11.5359 10.1766 11.5359 10.1766C11.55 10.1859 11.55 10.1859 11.55 10.1859L11.5641 10.1813C11.6672 10.1344 11.7516 10.0688 11.8078 9.99375C11.8125 9.98906 11.8125 9.98906 11.8125 9.98906L11.8219 9.99375C11.8641 10.0406 11.925 10.1203 11.9766 10.1484L11.9953 10.1578C12 10.1625 12 10.1625 12 10.1625C12 10.1625 12.0188 10.1578 12.0234 10.1531L12.0281 10.1438C12.1078 10.0641 12.1359 10.0313 12.1594 10.0031C12.2344 10.0781 12.4078 10.1672 12.5109 10.1672L12.5391 10.1391C12.5391 10.1156 12.5297 10.0781 12.5156 10.0359C12.5672 10.0641 12.6563 10.0922 12.7734 10.0922C12.7828 10.0922 12.7922 10.0875 12.7969 10.0781C12.7969 10.0781 12.8016 10.0594 12.7922 10.05L12.7875 10.0453C12.7734 10.0313 12.7594 10.0078 12.7406 9.98438C12.8484 9.975 12.9563 9.96094 13.05 9.94688C13.1438 9.92813 13.2234 9.90469 13.2797 9.88125C13.3313 9.85313 13.3828 9.82969 13.4438 9.79688C13.6547 9.67969 13.8891 9.55313 14.1469 9.55313C14.1938 9.55313 14.2406 9.55781 14.2828 9.56719C14.4516 9.59531 14.5406 9.825 14.5453 9.975L14.55 10.0078C14.4891 9.975 14.3484 9.89063 14.2641 9.86719L14.4516 14.3344Z" fill="#BF920D"/>
<path d="M10.1813 14.5031C10.1813 14.5031 10.3125 14.5313 10.3594 14.5688L10.3688 14.5734C10.3781 14.5734 10.3828 14.5688 10.3828 14.5688C10.3922 14.5547 10.3922 14.5406 10.3922 14.5406C10.3266 14.4938 10.1906 14.4656 10.1906 14.4656C10.1766 14.4609 10.1625 14.4703 10.1625 14.4797C10.1719 14.4797 10.1719 14.4984 10.1813 14.5031Z" fill="#BF920D"/>
<path d="M10.5047 14.6016C10.5469 14.6109 10.6641 14.6344 10.7063 14.6531L10.7156 14.6578L10.7344 14.6484C10.7344 14.6484 10.7344 14.625 10.725 14.6203C10.6688 14.5922 10.5188 14.5641 10.5188 14.5641C10.5047 14.5594 10.4906 14.5687 10.4906 14.5687C10.4906 14.5875 10.4953 14.5969 10.5047 14.6016Z" fill="#BF920D"/>
<path d="M11.0906 14.7188C11.0906 14.7188 11.1 14.7141 11.1141 14.7141C11.1516 14.7094 11.2406 14.7 11.3016 14.7141L11.3063 14.7188L11.325 14.7047C11.325 14.7047 11.325 14.6953 11.3203 14.6906C11.3156 14.6859 11.3109 14.6859 11.3109 14.6859C11.2828 14.6766 11.2594 14.6766 11.2313 14.6719C11.1797 14.6719 11.1328 14.6766 11.1047 14.6813C11.0953 14.6859 11.0906 14.6859 11.0906 14.6859C11.0906 14.6859 11.0672 14.6953 11.0672 14.7047L11.0906 14.7188Z" fill="#BF920D"/>
<path d="M11.4375 14.7375C11.4422 14.7375 11.5687 14.7188 11.6484 14.7188L11.6672 14.6953C11.6672 14.6859 11.6578 14.6766 11.6578 14.6766C11.5781 14.6766 11.4797 14.6906 11.4422 14.6953L11.4328 14.7L11.4188 14.7094L11.4141 14.7234L11.4375 14.7375Z" fill="#BF920D"/>
<path d="M13.6219 14.5687C13.6219 14.5687 13.6313 14.5688 13.6359 14.5641C13.6875 14.5266 13.8141 14.4984 13.8141 14.4984C13.8234 14.4937 13.8328 14.4891 13.8328 14.4891C13.8281 14.4656 13.8188 14.4609 13.8188 14.4609C13.8188 14.4609 13.6688 14.4891 13.6125 14.5359C13.6031 14.5406 13.6031 14.5547 13.6078 14.5641C13.6125 14.5688 13.6172 14.5687 13.6219 14.5687Z" fill="#BF920D"/>
<path d="M13.2844 14.6578L13.2938 14.6531C13.3359 14.6297 13.4484 14.6062 13.4953 14.6016C13.5047 14.5969 13.5094 14.5875 13.5094 14.5781L13.4859 14.5641C13.4859 14.5641 13.3313 14.5922 13.275 14.625L13.2656 14.6531C13.2656 14.6484 13.2797 14.6578 13.2844 14.6578Z" fill="#BF920D"/>
<path d="M12.9094 14.6812L12.8953 14.6766C12.8672 14.6719 12.8203 14.6672 12.7734 14.6672H12.7688C12.7406 14.6719 12.7172 14.6719 12.6891 14.6766L12.6797 14.6859C12.675 14.6906 12.675 14.6953 12.675 14.6953C12.675 14.6953 12.6844 14.7187 12.6938 14.7187L12.6984 14.7141C12.7594 14.7 12.8484 14.7094 12.8859 14.7141C12.8859 14.7141 12.9 14.7187 12.9094 14.7187L12.9281 14.6953C12.9328 14.6859 12.9234 14.6812 12.9094 14.6812Z" fill="#BF920D"/>
<path d="M12.5672 14.7C12.5672 14.7 12.5625 14.6953 12.5531 14.6953C12.5203 14.6906 12.4172 14.6766 12.3516 14.6766C12.3422 14.6766 12.3328 14.6859 12.3328 14.6953C12.3328 14.6953 12.3422 14.7188 12.3516 14.7188C12.4313 14.7188 12.5578 14.7375 12.5578 14.7375H12.5625L12.5813 14.7234L12.5766 14.7094L12.5672 14.7Z" fill="#BF920D"/>
<path d="M13.0875 10.7109L13.05 10.7062C13.0266 10.7062 13.0078 10.7016 12.9891 10.7016C12.7828 10.6875 12.5953 10.65 12.4172 10.5891C12.3844 10.5797 12.3563 10.5703 12.3281 10.5609C12.1922 10.5094 12.0891 10.4531 12.0234 10.4109C12.0187 10.4062 12.0141 10.4062 12.0141 10.4062C12.0141 10.4062 11.9906 10.3969 11.9859 10.4016C11.9859 10.4016 11.9766 10.4109 11.9719 10.4109C11.8922 10.4625 11.7656 10.5328 11.5828 10.5891C11.4094 10.65 11.2172 10.6875 11.0109 10.7016C10.9922 10.7062 10.9734 10.7062 10.9547 10.7062C10.9406 10.7062 10.9266 10.7109 10.9125 10.7109C10.9125 10.7109 10.8984 10.7203 10.8984 10.7344C10.9031 10.8844 10.9125 11.025 10.9359 11.1703C11.0203 11.6906 11.2359 12.1594 11.5781 12.5625C11.5828 12.5672 11.5875 12.5766 11.5875 12.5766C11.6344 12.6281 11.6813 12.6797 11.7234 12.7266C11.7609 12.7641 11.7984 12.8016 11.8359 12.8344C11.8875 12.8812 11.9391 12.9328 11.9953 12.975L12.0047 12.9797L12.0187 12.975C12.075 12.9328 12.1266 12.8812 12.1781 12.8391C12.2625 12.7594 12.3422 12.6703 12.4172 12.5859C12.4172 12.5859 12.4266 12.5719 12.4313 12.5672C12.6516 12.3094 12.8156 12.0281 12.9281 11.7234C12.9937 11.55 13.0406 11.3625 13.0687 11.175C13.0922 11.0344 13.1063 10.8891 13.1109 10.7391C13.1063 10.7203 13.0969 10.7109 13.0875 10.7109ZM12.4125 12.5156L12.3984 12.5344C12.3937 12.5391 12.3891 12.5437 12.3891 12.5437C12.3281 12.6141 12.2719 12.675 12.2109 12.7359C12.1969 12.75 12.1828 12.7641 12.1641 12.7781C12.1125 12.8297 12.0562 12.8766 12 12.9234C11.9484 12.8766 11.8875 12.8297 11.8406 12.7828C11.8078 12.7547 11.7797 12.7219 11.7469 12.6891C11.7 12.6422 11.6578 12.5953 11.6156 12.5484C11.6109 12.5437 11.6062 12.5391 11.6016 12.5344C11.6016 12.5344 11.5922 12.525 11.5875 12.5156V10.6312C11.5922 10.6312 11.5922 10.6266 11.5922 10.6266C11.7656 10.5703 11.8922 10.5047 11.9719 10.4578C11.9719 10.4578 11.9906 10.4437 12 10.4391C12 10.4391 12.0188 10.4531 12.0281 10.4578C12.0984 10.5 12.1922 10.5516 12.3187 10.5984C12.3469 10.6078 12.3797 10.6219 12.4078 10.6266L12.4172 10.6312V12.5156H12.4125Z" fill="#BF920D"/>
</g>
<defs>
<clipPath id="clip0_1_8660">
<rect width="24" height="24" fill="white"/>
</clipPath>
</defs>
</svg>
